<svg viewBox="0 0 1368 350" fill="none" xmlns="http://www.w3.org/2000/svg"><g clip-path="url(#a)"><path d="M1228.26 344.457c3.52-21.084 4.64-45.72 4.99-66.605 0-.038 0-.075-.02-.11a.307.307 0 0 0-.07-.089.25.25 0 0 0-.21-.055c-15.32 2.867-37.81-.992-38.56-24.196a.242.242 0 0 0-.05-.142.24.24 0 0 0-.12-.09.249.249 0 0 0-.15-.007c-.05.012-.1.04-.13.078-10.63 12.012-62.96 1.954-59.8-49.061.71-11.5 12.15-32.874 31.77-31.685a.276.276 0 0 0 .21-.089c.02-.03.04-.066.05-.104a.236.236 0 0 0 0-.118c-13.66-59.851 43.67-61.028 58.4-49.257.03.023.06.04.1.049.03.01.07.012.11.006a.274.274 0 0 0 .1-.038.24.24 0 0 0 .07-.075c25.21-38.156 88.77-26.555 83.71 19.872-.01.048 0 .096.02.14.02.043.05.08.1.105a.24.24 0 0 0 .13.038c.05 0 .1-.015.14-.041 33.59-21.612 63.04 22.19 41.07 47.708a.22.22 0 0 0-.06.215c.01.038.02.074.05.105a.2.2 0 0 0 .09.072c10.81 5.405 16.2 15.139 17.54 25.686 3.21 25.151-23.5 56.405-56.89 40.944a.243.243 0 0 0-.25.024.252.252 0 0 0-.09.102c-.02.041-.02.086-.02.131 1.12 15.199-21.72 26.914-40.02 17.833a.29.29 0 0 0-.13-.028.233.233 0 0 0-.12.037.22.22 0 0 0-.09.091.19.19 0 0 0-.04.123c-.27 22.008-.04 47.33 3.86 68.344.13.688.1 1.396-.08 2.072a4.793 4.793 0 0 1-2.61 3.107 4.86 4.86 0 0 1-2.04.451h-36.21c-.7 0-1.38-.15-2.02-.44a4.927 4.927 0 0 1-1.65-1.241 4.831 4.831 0 0 1-.97-1.812 4.89 4.89 0 0 1-.11-2.05Z" fill="#644535"/></g><path d="M821.642 213.758c11.804-3.341 89.865-27.856 50.227-80.193-34.698-45.815-70.877 6.081-79.735 20.428a.259.259 0 0 1-.153.114.263.263 0 0 1-.319-.159.262.262 0 0 1 0-.191c8.563-21.056 44.795-123.984-75.985-100.218-90.649 17.835-50.537 110.7-47.929 116.498a.283.283 0 0 1 .023.111.27.27 0 0 1-.027.111.263.263 0 0 1-.173.138c-4.749 1.24-63.293 18.095-24.179 80.71 27.704 44.349 85.806 19.236 90.964 16.893a.257.257 0 0 1 .128-.024.259.259 0 0 1 .246.26c.106 7.657-.664 28.34-7.901 76.045a4.92 4.92 0 0 0 1.12 3.978 4.972 4.972 0 0 0 3.765 1.741h39.99a4.972 4.972 0 0 0 3.765-1.741 4.92 4.92 0 0 0 1.12-3.978c-7.976-52.583-8.098-72.336-7.848-78.003a.264.264 0 0 1 .396-.216c5.07 2.845 60.349 32.916 80.407 3.737 32.783-47.692-18.248-54.651-27.856-55.525a.267.267 0 0 1-.236-.239.268.268 0 0 1 .045-.172.275.275 0 0 1 .145-.105Z" fill="#003C03"/><path d="M981.744 123.338c-3.864-5.11-10.562-6.666-16.467-5.518-11.8 2.296-23.824 9.904-28.931 13.435a.308.308 0 1 1-.409-.462c8.151-8.872 34.678-37.316 27.526-52.722-2.867-6.194-10.648-7.599-16.93-5.972-10.461 2.694-24.897 11.636-28.507 13.938a.306.306 0 0 1-.461-.19.311.311 0 0 1 .015-.19c1.62-3.857 7.691-19.282 8.973-36.68 1.843-25.055-2.949-51.586-32.1-48.77-50.371 4.866-21.57 77.977-18.259 85.982a.31.31 0 0 1-.06.35.304.304 0 0 1-.349.06c-3.166-1.369-16.488-5.636-27.094-7.047-15.357-2.054-22.292 9.09-12.562 21.3 12.21 15.325 23.637 27.425 26.631 30.544a.312.312 0 0 1 .048.369.312.312 0 0 1-.148.13.31.31 0 0 1-.195.013c-3.276-.822-13.748-3.935-25.73-4.081-10.34-.125-16.266 4.997-16.743 12.786-1.122 18.559 24.286 37.118 65.011 73.279a.303.303 0 0 1 .1.189c1.118 8.342 4.476 45.413-8.741 128.837a5.77 5.77 0 0 0 1.3 4.636 5.74 5.74 0 0 0 4.36 2.018h39.571a5.724 5.724 0 0 0 4.36-2.018 5.77 5.77 0 0 0 1.3-4.636c-13.219-83.432-9.859-120.503-8.741-128.841a.299.299 0 0 1 .102-.189c3-2.579 79.584-68.783 63.13-90.55Z" fill="#40521F"/><path d="M715.234 155.718c-3.307-4.379-9.038-5.714-14.091-4.73-10.097 1.968-20.385 8.49-24.754 11.516a.264.264 0 1 1-.351-.396c6.975-7.604 29.673-31.984 23.553-45.19-2.453-5.309-9.111-6.513-14.486-5.119-8.951 2.31-21.303 9.974-24.392 11.947a.261.261 0 0 1-.395-.162.263.263 0 0 1 .013-.164c1.386-3.305 6.581-16.527 7.677-31.44 1.577-21.476-2.523-44.217-27.467-41.803-43.101 4.172-18.456 66.838-15.623 73.699a.265.265 0 0 1-.193.374.251.251 0 0 1-.157-.022c-2.709-1.174-14.108-4.832-23.184-6.041-13.14-1.76-19.074 7.791-10.749 18.258 10.448 13.135 20.226 23.507 22.788 26.181a.264.264 0 0 1 .041.316.262.262 0 0 1-.293.122c-2.804-.704-11.764-3.373-22.017-3.498-8.848-.107-13.918 4.283-14.327 10.96-.96 15.907 20.782 31.815 55.629 62.81.047.042.077.1.085.162.957 7.15 3.83 38.925-7.479 110.432a4.943 4.943 0 0 0 1.112 3.973 4.91 4.91 0 0 0 3.73 1.73h33.861a4.897 4.897 0 0 0 3.73-1.73 4.938 4.938 0 0 0 1.113-3.973c-11.312-71.514-8.437-103.289-7.48-110.435a.257.257 0 0 1 .088-.162c2.566-2.211 68.097-58.958 54.018-77.615Z" fill="#644535"/><path d="M1161.11 190.018c0-42.497-38.18-57.972-46.7-76.781-2.61-5.78 5.06-13.385 5.15-25.011.15-18.226-11.71-36.388-39.54-36.388-21.89 0-31.45 12.113-34.22 26.938-3.08 16.517 4.35 28.501 5.44 32.346 3.45 12.056-44.42 34.543-45.34 80.155-.82 40.295 49.88 68.949 61.55 75.005.04.022.08.056.11.098.02.041.04.089.04.139.4 18.011-.14 47.037-5.72 75.529a5.15 5.15 0 0 0 .07 2.244 5.06 5.06 0 0 0 1.01 2.002 5.16 5.16 0 0 0 1.77 1.377c.69.323 1.44.491 2.19.491h33.16c.75 0 1.5-.168 2.19-.491a5.16 5.16 0 0 0 1.77-1.377 5.06 5.06 0 0 0 1.01-2.002c.19-.734.21-1.5.07-2.244-5.57-28.446-6.12-57.406-5.72-75.428 0-.05.02-.098.04-.14a.335.335 0 0 1 .11-.097c10.94-5.423 61.56-32.837 61.56-76.365Z" fill="#5F4900"/><g clip-path="url(#b)"><path d="M529.326 345.566c2.814-16.868 3.71-36.577 3.992-53.285 0-.03-.006-.06-.018-.087a.216.216 0 0 0-.055-.072.217.217 0 0 0-.08-.041.196.196 0 0 0-.09-.003c-12.241 2.294-30.213-.793-30.816-19.357a.2.2 0 0 0-.039-.113.208.208 0 0 0-.217-.078.206.206 0 0 0-.103.063c-8.498 9.609-50.316 1.563-47.79-39.249.57-9.2 9.709-26.299 25.387-25.348a.197.197 0 0 0 .093-.016.198.198 0 0 0 .119-.139.2.2 0 0 0 .001-.094c-10.919-47.881 34.897-48.822 46.672-39.405a.211.211 0 0 0 .161.044.212.212 0 0 0 .14-.091c20.144-30.525 70.936-21.244 66.892 15.897a.192.192 0 0 0 .02.113.203.203 0 0 0 .187.114.205.205 0 0 0 .11-.033c26.845-17.289 50.376 17.752 32.818 38.167a.205.205 0 0 0-.046.172c.006.03.019.059.038.084a.211.211 0 0 0 .071.058c8.642 4.323 12.949 12.111 14.018 20.548 2.563 20.121-18.778 45.124-45.459 32.755a.21.21 0 0 0-.105-.018.21.21 0 0 0-.1.037.2.2 0 0 0-.068.082.21.21 0 0 0-.018.105c.898 12.159-17.36 21.531-31.985 14.266a.22.22 0 0 0-.101-.022.204.204 0 0 0-.171.102.214.214 0 0 0-.028.099c-.217 17.606-.034 37.864 3.086 54.675a3.8 3.8 0 0 1-.832 3.131 3.856 3.856 0 0 1-2.953 1.373h-28.931c-.558 0-1.109-.12-1.615-.352a3.819 3.819 0 0 1-2.094-2.443 3.797 3.797 0 0 1-.091-1.639Z" fill="#004687"/></g><g clip-path="url(#c)"><path d="M1070.66 146.305c-2.4-15.372-34.66 4.838-43.79 10.894-.05.03-.1.041-.16.032a.205.205 0 0 1-.14-.085.226.226 0 0 1-.05-.158c0-.057.03-.11.07-.15 8.17-7.904 36.21-37.261 12.62-47.061-21.44-8.899-36.47 32.163-39.569 41.461a.228.228 0 0 1-.103.123.22.22 0 0 1-.157.026.23.23 0 0 1-.184-.238c.729-11.252 2.683-67.327-32.728-46.589-24.613 14.413-.61 44.359 5.422 51.253a.233.233 0 0 1 .019.327.236.236 0 0 1-.158.077.231.231 0 0 1-.166-.059c-9.393-6.296-57.016-36.385-54.178 2.775 1.83 25.123 26.659 17.794 35.182 14.512a.23.23 0 0 1 .167-.004.23.23 0 0 1 .036.414c-6.252 3.991-21.381 14.897-21.157 26.787.073 3.853 2.373 10.035 7.068 12.315 7.887 3.831 14.31-8.877 24.022-13.963 8.106-4.245 16.327-4.316 16.327-4.316h.138a.234.234 0 0 1 .235.219c.929 16.896 3.541 85.763-10.979 149.824-.658 2.905 1.219 5.282 4.16 5.282h43.193c2.96 0 4.82-2.377 4.16-5.286-15.25-67.293-11.59-139.882-10.84-151.971 0-.042.01-.082.04-.116a.194.194 0 0 1 .09-.079.242.242 0 0 1 .12-.02c.04.005.08.02.11.045 3.7 2.76 36.93 26.778 48.59 8.645 8.33-12.947-19.34-23.916-29.41-27.396a.227.227 0 0 1-.13-.109.241.241 0 0 1-.02-.167.215.215 0 0 1 .1-.137c.05-.032.1-.044.16-.034 11.65 1.939 46.93 5.279 41.89-27.073Z" fill="#004687"/></g><path d="M396.07 236.465c9.798-2.784 74.592-23.214 41.691-66.828-28.801-38.178-58.831 5.068-66.183 17.024a.221.221 0 0 1-.286.08.219.219 0 0 1-.106-.118.218.218 0 0 1 0-.159c7.107-17.546 37.182-103.32-63.071-83.514-75.242 14.862-41.948 92.249-39.783 97.081.013.029.02.06.019.092a.213.213 0 0 1-.166.208c-3.941 1.033-52.536 15.079-20.069 67.258 22.995 36.958 71.223 16.03 75.503 14.078a.207.207 0 0 1 .107-.02.212.212 0 0 1 .177.112.21.21 0 0 1 .027.104c.088 6.381-.551 23.617-6.558 63.371a4.114 4.114 0 0 0 4.055 4.766h33.193a4.117 4.117 0 0 0 3.125-1.451 4.116 4.116 0 0 0 .929-3.315c-6.619-43.819-6.721-60.28-6.514-65.002a.219.219 0 0 1 .222-.209c.037 0 .074.01.107.029 4.209 2.371 50.092 27.43 66.741 3.114 27.211-39.744-15.146-45.543-23.122-46.271a.22.22 0 0 1-.038-.43Z" fill="#40521F"/><g clip-path="url(#d)"><path d="M134.787 343.349c4.214-25.302 5.556-54.865 5.978-79.927a.297.297 0 0 0-.028-.131.296.296 0 0 0-.201-.169.308.308 0 0 0-.135-.005c-18.329 3.441-45.238-1.189-46.141-29.035a.307.307 0 0 0-.537-.193c-12.725 14.415-75.34 2.344-71.559-58.873.854-13.8 14.538-39.449 38.013-38.022a.304.304 0 0 0 .254-.107.302.302 0 0 0 .065-.266C44.147 64.799 112.75 63.387 130.38 77.512a.31.31 0 0 0 .361.021.302.302 0 0 0 .09-.09c30.163-45.788 106.215-31.867 100.159 23.846a.306.306 0 0 0 .145.295.312.312 0 0 0 .33-.005c40.196-25.933 75.429 26.628 49.139 57.25a.316.316 0 0 0-.065.121.31.31 0 0 0 .16.35c12.939 6.485 19.388 18.167 20.989 30.822 3.838 30.182-28.117 67.687-68.066 49.133a.308.308 0 0 0-.436.309c1.343 18.239-25.994 32.297-47.893 21.399a.31.31 0 0 0-.407.121.308.308 0 0 0-.041.148c-.325 26.408-.052 56.795 4.62 82.012a5.717 5.717 0 0 1-3.227 6.215 5.78 5.78 0 0 1-2.441.541h-43.319c-.835 0-1.66-.18-2.418-.528a5.738 5.738 0 0 1-3.135-3.664 5.706 5.706 0 0 1-.137-2.459Z" fill="#003C03"/></g><path d="M1210.26 259.172c7.83-2.227 59.67-18.571 33.35-53.462-23.04-30.543-47.07 4.054-52.95 13.619a.17.17 0 0 1-.1.076.19.19 0 0 1-.13-.012.146.146 0 0 1-.08-.094.144.144 0 0 1 0-.128c5.68-14.037 29.74-82.655-50.46-66.811-60.19 11.889-33.56 73.799-31.82 77.665.01.023.01.048.01.074a.19.19 0 0 1-.02.073.144.144 0 0 1-.04.06.222.222 0 0 1-.07.033c-3.16.826-42.03 12.063-16.06 53.806 18.4 29.566 56.98 12.824 60.41 11.262a.144.144 0 0 1 .08-.016c.03.002.06.011.08.027.03.016.05.037.06.063.02.025.02.054.02.083.07 5.105-.44 18.894-5.24 50.697-.08.47-.05.95.08 1.407a3.283 3.283 0 0 0 3.16 2.406h26.56c.47-.002.94-.107 1.37-.307.43-.2.82-.492 1.13-.854.3-.362.53-.787.66-1.245.13-.457.15-.937.08-1.407-5.3-35.055-5.38-48.224-5.21-52.001 0-.03.01-.06.02-.085a.187.187 0 0 1 .07-.061.213.213 0 0 1 .09-.022c.03.001.06.008.08.023 3.37 1.897 40.08 21.945 53.39 2.492 21.77-31.795-12.11-36.435-18.49-37.017a.195.195 0 0 1-.11-.052.152.152 0 0 1-.05-.108c0-.04.01-.08.03-.114a.174.174 0 0 1 .1-.07Z" fill="#003C03"/><path d="M301.018 243.345c0-28.331-25.836-38.648-31.6-51.187-1.771-3.853 3.419-8.923 3.484-16.674.101-12.151-7.929-24.258-26.758-24.258-14.809 0-21.277 8.075-23.152 17.958-2.089 11.012 2.939 19.001 3.682 21.564 2.329 8.038-30.059 23.029-30.685 53.437-.552 26.863 33.752 45.966 41.65 50.003a.18.18 0 0 1 .1.158c.273 12.007-.092 31.358-3.868 50.353a3.388 3.388 0 0 0 .732 2.83c.326.39.735.703 1.198.919.464.215.97.327 1.482.327h22.433a3.486 3.486 0 0 0 2.681-1.246c.326-.389.56-.845.687-1.334.126-.489.142-1 .044-1.496-3.769-18.964-4.139-38.271-3.87-50.286a.182.182 0 0 1 .103-.158c7.403-3.615 41.657-21.891 41.657-50.91Z" fill="#5F4900"/><g clip-path="url(#e)"><path d="M549.124 64.826c-3.354-21.52-48.529 6.774-61.305 15.252a.314.314 0 0 1-.421-.073.322.322 0 0 1 .027-.432c11.443-11.065 50.696-52.165 17.664-65.885-30.007-12.459-51.057 45.028-55.391 58.046a.323.323 0 0 1-.364.208.32.32 0 0 1-.257-.333c1.02-15.752 3.762-94.258-45.82-65.225-34.458 20.178-.854 62.102 7.592 71.754a.327.327 0 0 1 .025.458.318.318 0 0 1-.452.025c-13.151-8.814-79.823-50.94-75.85 3.885 2.562 35.172 37.323 24.912 49.255 20.318a.315.315 0 0 1 .408.152.327.327 0 0 1 .021.236.328.328 0 0 1-.145.186c-8.753 5.586-29.934 20.855-29.62 37.5.102 5.395 3.322 14.05 9.895 17.241 11.042 5.364 20.034-12.427 33.632-19.548 11.347-5.942 22.856-6.041 22.856-6.041h.195a.32.32 0 0 1 .328.306c1.301 23.654 4.958 120.067-15.371 209.753-.92 4.067 1.708 7.395 5.824 7.395h60.476c4.134 0 6.747-3.328 5.824-7.4-21.349-94.21-16.225-195.834-15.183-212.76a.314.314 0 0 1 .055-.162.313.313 0 0 1 .295-.138.321.321 0 0 1 .158.062c5.181 3.865 51.693 37.49 68.025 12.104 11.663-18.126-27.075-33.483-41.176-38.356a.321.321 0 0 1-.208-.385.324.324 0 0 1 .135-.192.314.314 0 0 1 .229-.048c16.31 2.714 65.7 7.39 58.644-37.903Z" fill="#5F4900"/></g><path d="M127.256 259.172c7.839-2.227 59.674-18.571 33.353-53.462-23.041-30.543-47.065 4.054-52.947 13.619a.175.175 0 0 1-.228.064.18.18 0 0 1-.086-.094.182.182 0 0 1 .001-.128c5.685-14.037 29.745-82.655-50.457-66.811-60.193 11.889-33.558 73.799-31.827 77.665a.17.17 0 0 1-.002.147.174.174 0 0 1-.115.093c-3.153.826-42.028 12.063-16.055 53.806 18.396 29.566 56.978 12.824 60.402 11.262a.173.173 0 0 1 .227.074.172.172 0 0 1 .022.083c.07 5.105-.441 18.894-5.246 50.697a3.288 3.288 0 0 0 1.866 3.506c.431.2.901.305 1.377.307h26.555a3.31 3.31 0 0 0 2.5-1.161 3.29 3.29 0 0 0 .743-2.652c-5.295-35.055-5.376-48.224-5.21-52.001a.175.175 0 0 1 .176-.168c.03.001.06.008.086.023 3.367 1.897 40.074 21.945 53.393 2.492 21.769-31.795-12.117-36.435-18.497-37.017a.18.18 0 0 1-.107-.052.181.181 0 0 1-.05-.108.178.178 0 0 1 .126-.184Z" fill="#644535"/><defs><clipPath id="a"><path fill="#fff" transform="translate(1134 100)" d="M0 0h234v250H0z"/></clipPath><clipPath id="b"><path fill="#fff" transform="translate(454 150)" d="M0 0h187v200H0z"/></clipPath><clipPath id="c"><path fill="#fff" transform="translate(917 100)" d="M0 0h155v250H0z"/></clipPath><clipPath id="d"><path fill="#fff" transform="translate(22 50)" d="M0 0h280v300H0z"/></clipPath><clipPath id="e"><path fill="#fff" transform="translate(334)" d="M0 0h217v350H0z"/></clipPath></defs></svg>
