<svg xmlns="http://www.w3.org/2000/svg" viewBox="2.99987 1.99929 17.37 20">
	<path d="M17.574 11.965a.028.028 0 01-.018-.026.028.028 0 01.018-.026c2.34-1.2 2.76-3.856 1.543-4.736-1.35-.972-3.01.168-3.346.4a.028.028 0 01-.044-.028c.569-3.547-2.653-6.54-6.532-5.24C4.659 3.839 6.39 9.442 6.69 10.342a.029.029 0 01-.008.04.029.029 0 01-.04-.008c-1.37-1.264-4.692.316-3.314 4.708.93 2.947 4.38 3.263 6.572 3.263h.377a23.519 23.519 0 00-.4 3.656h3.55a20.763 20.763 0 01-.75-3.656h1.05c1.386 0 4.484-.248 5.858-2.236 2.084-3.02-.492-4.363-2.011-4.143z" fill="#5cd05e"/>
</svg>