<?xml version="1.0" encoding="utf-8"?>
<svg version="1.1" xmlns="http://www.w3.org/2000/svg" xmlns:xlink="http://www.w3.org/1999/xlink" x="0px" y="0px" viewBox="0 0 256 256" enable-background="new 0 0 256 256" xml:space="preserve">
<path fill="#fff" d="M152.8,10.9c-8.6,2.8-16.7,10.3-19.7,18.1l-1.6,4.2H73.3c-57.5,0-58.3,0-60.8,2c-3,2.4-3.3,7.1-0.7,10.4l1.8,2.3l58.9,0.3l59,0.2l2,4.5c3.2,7.1,8,12,15,15.5c5.5,2.6,7.3,3.1,13.5,3.1c5.7-0.1,8.2-0.6,12.4-2.5c19.3-8.9,24.4-33.2,10.4-49.2c-4.6-5.2-13.8-9.3-21.5-9.7C159.4,9.8,155.2,10.2,152.8,10.9z M166,24.8c4.7,1.2,9.7,5.8,11.1,10c3.7,11.2-4,22-15.7,22c-5.2,0-8.8-1.7-12.2-5.7c-7.6-9.2-4-21.9,7.6-26.1C161.4,23.6,161.6,23.6,166,24.8z"/><path fill="#fff" d="M211.3,34.1c-4.2,1.7-5.4,7.6-2.2,11.1c2.5,2.7,6.1,3.2,20.7,2.8c11.9-0.3,12.6-0.4,14.3-2.5c2.6-3.3,2.4-8-0.7-10.4c-2.3-1.8-3.8-2-16.3-1.9C219.6,33.3,212.5,33.7,211.3,34.1z"/><path fill="#fff" d="M63.7,99.1c-8.4,3.4-14.9,10.1-17.9,18.3l-1.2,3.6H29.2c-14.2,0-15.6,0.2-17.3,1.9c-2.6,2.6-2.5,7.6,0.3,10.2c2.1,2,3.1,2.1,17.3,2.1h15.1l1.2,3.5c3.1,8.6,11.8,16.7,20.4,19.1c13.4,3.7,28.2-2.2,35-13.6c3.3-5.7,4.2-9.3,4.2-16.8c0-11-6.1-21-16.3-26.6C82.5,97.1,70.5,96.3,63.7,99.1z M80.5,112.6c6,2.3,10.7,9,10.7,15.5c0,17.4-24.1,22.6-31.2,6.7c-2.2-4.9-2.2-8.5,0-13.3C63.7,113.2,72.4,109.5,80.5,112.6z"/><path fill="#fff" d="M123,122.1c-3.8,2.9-3.4,10.9,0.8,12.5c0.8,0.3,27.8,0.6,59.8,0.6h58.3l2-2.2c2.6-2.8,2.7-7.5,0.2-10.1c-1.9-1.9-3.1-1.9-60.7-1.9C137.8,121,124.2,121.3,123,122.1z"/><path fill="#fff" d="M133,185.9c-2.7,0.9-6.6,2.9-8.7,4.3c-4.2,2.9-10,10.9-11,14.9l-0.6,2.5L63.3,208c-47,0.3-49.5,0.4-51.3,2.1c-1.3,1.2-2,2.9-2,5.3c0,2.4,0.7,4.1,2,5.3c1.9,1.7,4.3,1.8,51.3,2.1l49.5,0.3l0.6,2.8c0.7,2.8,5.8,10.2,9.3,13.4c8.1,7.2,22.7,9,32.8,4.2c18.8-9.2,23.6-33.9,9.4-49C156.8,185.5,143.7,182.1,133,185.9z M152.1,201.8c6.7,4.3,8.8,15.8,4.2,22.4c-3.6,5.3-8.5,7.6-15,7.1c-6.5-0.5-10.7-3-13.3-8.3c-4.9-9.6,0.9-21.8,11.2-23.6C143.3,198.6,149,199.7,152.1,201.8z"/><path fill="#fff" d="M190.9,209.8c-3.2,2.5-3.5,8.1-0.5,10.9c1.9,1.7,3.8,1.8,27,1.8h25l1.8-2.3c2.6-3.3,2.4-8-0.7-10.4c-2.4-1.9-3.7-2-26.3-2S193.2,207.9,190.9,209.8z"/>
</svg>